<?xml version="1.0" standalone="no"?>
<!DOCTYPE svg PUBLIC "-//W3C//DTD SVG 20010904//EN"
 "http://www.w3.org/TR/2001/REC-SVG-20010904/DTD/svg10.dtd">
<svg version="1.0" xmlns="http://www.w3.org/2000/svg"
 width="400.000000pt" height="400.000000pt" viewBox="0 0 400.000000 400.000000"
 preserveAspectRatio="xMidYMid meet">
<metadata>
Created by potrace 1.14, written by Peter Selinger 2001-2017
</metadata>
<g transform="translate(0.000000,400.000000) scale(0.100000,-0.100000)"
fill="#000000" stroke="none">
<path d="M2416 2342 c-6 -9 -777 -2139 -784 -2164 -4 -17 14 -18 276 -18 l280
0 65 193 64 192 409 0 409 0 65 -192 65 -193 283 0 c155 0 282 3 282 8 0 4
-177 495 -394 1092 l-393 1085 -311 3 c-171 1 -313 -1 -316 -6z m444 -982 c72
-210 130 -386 130 -391 0 -5 -109 -9 -266 -9 -209 0 -265 3 -262 13 3 6 63
184 134 394 71 210 130 380 132 378 2 -1 61 -175 132 -385z"/>
</g>
</svg>
